0
SECTION
2
HEADER
9
$INSUNITS
70
6
0
ENDSEC
0
SECTION
2
ENTITIES
0
LWPOLYLINE
8
SITE
90
4
70
1
10
-25.0
20
-10.5
10
25.0
20
-10.5
10
25.0
20
10.5
10
-25.0
20
10.5
0
LWPOLYLINE
8
ROAD
90
4
70
1
10
-25.0
20
6.5
10
25.0
20
6.5
10
25.0
20
10.5
10
-25.0
20
10.5
0
LWPOLYLINE
8
ROAD
90
4
70
1
10
21.0
20
-10.5
10
25.0
20
-10.5
10
25.0
20
10.5
10
21.0
20
10.5
0
LWPOLYLINE
8
ROAD
90
4
70
1
10
-25.0
20
-10.5
10
25.0
20
-10.5
10
25.0
20
-6.5
10
-25.0
20
-6.5
0
LWPOLYLINE
8
PATH
90
9
70
0
43
1.2
10
-10.5
20
-0.4
10
-8.0
20
0.6
10
-5.5
20
1.2
10
-3.0
20
0.7
10
-0.5
20
-0.2
10
2.0
20
-0.8
10
4.5
20
-0.5
10
7.0
20
-0.9
10
10.0
20
-1.8
0
CIRCLE
8
TREE
10
10.0
20
-1.5
30
0.0
40
2.6
0
CIRCLE
8
TREE
10
10.0
20
-1.5
30
0.0
40
0.45
0
TEXT
8
TEXT
10
-24.0
20
9.3
30
0.0
40
0.7
1
CAMPING MASTERPLAN
0
TEXT
8
TEXT
10
-24.0
20
8.3
30
0.0
40
0.45
1
Sine-line cabin layout
0
LWPOLYLINE
8
CABIN
90
4
70
1
10
-11.1394
20
-0.9857
10
-10.4188
20
3.9621
10
-6.4606
20
3.3857
10
-7.1812
20
-1.5621
0
LWPOLYLINE
8
DECK
90
4
70
1
10
-12.9206
20
-0.7263
10
-12.2001
20
4.2215
10
-10.4188
20
3.9621
10
-11.1394
20
-0.9857
0
TEXT
8
TEXT
10
-8.8
20
1.2
30
0.0
40
0.35
1
C1
0
LWPOLYLINE
8
CABIN
90
4
70
1
10
-7.7317
20
1.7134
10
-5.4116
20
6.1426
10
-1.8683
20
4.2866
10
-4.1884
20
-0.1426
0
LWPOLYLINE
8
DECK
90
4
70
1
10
-9.3262
20
2.5486
10
-7.0061
20
6.9778
10
-5.4116
20
6.1426
10
-7.7317
20
1.7134
0
TEXT
8
TEXT
10
-4.8
20
3.0
30
0.0
40
0.35
1
C2
0
LWPOLYLINE
8
CABIN
90
4
70
1
10
-3.9478
20
4.5844
10
0.4612
20
6.9427
10
2.3478
20
3.4156
10
-2.0612
20
1.0573
0
LWPOLYLINE
8
DECK
90
4
70
1
10
-4.7967
20
6.1717
10
-0.3878
20
8.5299
10
0.4612
20
6.9427
10
-3.9478
20
4.5844
0
TEXT
8
TEXT
10
-0.8
20
4.0
30
0.0
40
0.35
1
C3
0
LWPOLYLINE
8
CABIN
90
4
70
1
10
1.8935
20
5.9228
10
6.3383
20
3.6331
10
4.5065
20
0.0772
10
0.0617
20
2.3669
0
LWPOLYLINE
8
DECK
90
4
70
1
10
2.7178
20
7.523
10
7.1627
20
5.2332
10
6.3383
20
3.6331
10
1.8935
20
5.9228
0
TEXT
8
TEXT
10
3.2
20
3.0
30
0.0
40
0.35
1
C4
0
LWPOLYLINE
8
CABIN
90
4
70
1
10
8.4979
20
4.1267
10
9.7704
20
-0.7087
10
5.9021
20
-1.7267
10
4.6296
20
3.1087
0
LWPOLYLINE
8
DECK
90
4
70
1
10
10.2386
20
4.5848
10
11.5111
20
-0.2506
10
9.7704
20
-0.7087
10
8.4979
20
4.1267
0
TEXT
8
TEXT
10
7.2
20
1.2
30
0.0
40
0.35
1
C5
0
LWPOLYLINE
8
CABIN
90
4
70
1
10
13.3748
20
1.3496
10
13.0149
20
-3.6375
10
9.0252
20
-3.3496
10
9.3851
20
1.6375
0
LWPOLYLINE
8
DECK
90
4
70
1
10
15.1701
20
1.22
10
14.8102
20
-3.767
10
13.0149
20
-3.6375
10
13.3748
20
1.3496
0
TEXT
8
TEXT
10
11.2
20
-1.0
30
0.0
40
0.35
1
C6
0
LWPOLYLINE
8
CONTAINER
90
4
70
1
10
-20.0
20
0.5
10
-12.0
20
0.5
10
-12.0
20
6.5
10
-20.0
20
6.5
0
TEXT
8
TEXT
10
-16.0
20
3.5
30
0.0
40
0.45
1
CT1
0
ENDSEC
0
EOF
