999
dxfrw 0.6.3
  0
SECTION
  2
HEADER
  9
$ACADVER
  1
AC1021
  9
$DWGCODEPAGE
  3
ANSI_1252
  9
$INSBASE
 10
0
 20
0
 30
0
  9
$EXTMIN
 10
-100
 20
-2500
 30
0
  9
$EXTMAX
 10
10000
 20
150
 30
0
  9
$LIMMIN
 10
0
 20
0
  9
$LIMMAX
 10
420
 20
297
  9
$ORTHOMODE
 70
    0
  9
$REGENMODE
 70
    1
  9
$FILLMODE
 70
    1
  9
$QTEXTMODE
 70
    0
  9
$MIRRTEXT
 70
    1
  9
$LTSCALE
 40
1
  9
$ATTMODE
 70
    1
  9
$TEXTSIZE
 40
2.5
  9
$TRACEWID
 40
1
  9
$TEXTSTYLE
  7
Standard
  9
$CLAYER
  8
0
  9
$CELTYPE
  6
ByLayer
  9
$CECOLOR
 62
  256
  9
$CELTSCALE
 40
1
  9
$DISPSILH
 70
    0
  9
$DIMSCALE
 40
1
  9
$DIMASZ
 40
2.5
  9
$DIMEXO
 40
0.625
  9
$DIMDLI
 40
3.75
  9
$DIMRND
 40
0
  9
$DIMDLE
 40
0
  9
$DIMEXE
 40
1.25
  9
$DIMTP
 40
0
  9
$DIMTM
 40
0
  9
$DIMTXT
 40
2.5
  9
$DIMCEN
 40
2.5
  9
$DIMTSZ
 40
0
  9
$DIMTOL
 70
    0
  9
$DIMLIM
 70
    0
  9
$DIMTIH
 70
    0
  9
$DIMTOH
 70
    0
  9
$DIMSE1
 70
    0
  9
$DIMSE2
 70
    0
  9
$DIMTAD
 70
    1
  9
$DIMZIN
 70
    8
  9
$DIMBLK
  1

  9
$DIMASO
 70
    1
  9
$DIMSHO
 70
    1
  9
$DIMPOST
  1

  9
$DIMAPOST
  1

  9
$DIMALT
 70
    0
  9
$DIMALTD
 70
    3
  9
$DIMALTF
 40
0.03937007874
  9
$DIMLFAC
 40
1
  9
$DIMTOFL
 70
    1
  9
$DIMTVP
 40
0
  9
$DIMTIX
 70
    0
  9
$DIMSOXD
 70
    0
  9
$DIMSAH
 70
    0
  9
$DIMBLK1
  1

  9
$DIMBLK2
  1

  9
$DIMSTYLE
  2
ISO-25
  9
$DIMCLRD
 70
    0
  9
$DIMCLRE
 70
    0
  9
$DIMCLRT
 70
    0
  9
$DIMTFAC
 40
1
  9
$DIMGAP
 40
0.625
  9
$DIMJUST
 70
    0
  9
$DIMSD1
 70
    0
  9
$DIMSD2
 70
    0
  9
$DIMTOLJ
 70
    0
  9
$DIMTZIN
 70
    8
  9
$DIMALTZ
 70
    0
  9
$DIMALTTZ
 70
    0
  9
$DIMUPT
 70
    0
  9
$DIMDEC
 70
    2
  9
$DIMTDEC
 70
    2
  9
$DIMALTU
 70
    2
  9
$DIMALTTD
 70
    3
  9
$DIMTXSTY
  7
Standard
  9
$DIMAUNIT
 70
    0
  9
$DIMADEC
 70
    0
  9
$DIMALTRND
 40
0
  9
$DIMAZIN
 70
    0
  9
$DIMDSEP
 70
   44
  9
$DIMATFIT
 70
    3
  9
$DIMFRAC
 70
    0
  9
$DIMLDRBLK
  1

  9
$DIMLUNIT
 70
    2
  9
$DIMLWD
 70
   -2
  9
$DIMLWE
 70
   -2
  9
$DIMTMOVE
 70
    0
  9
$DIMFXL
 40
1
  9
$DIMFXLON
 70
    0
  9
$DIMJOGANG
 40
0.785398163397
  9
$DIMTFILL
 70
    0
  9
$DIMTFILLCLR
 70
    0
  9
$DIMARCSYM
 70
    0
  9
$DIMLTYPE
  6

  9
$DIMLTEX1
  6

  9
$DIMLTEX2
  6

  9
$LUNITS
 70
    2
  9
$LUPREC
 70
    4
  9
$SKETCHINC
 40
1
  9
$FILLETRAD
 40
10
  9
$AUNITS
 70
    0
  9
$AUPREC
 70
    2
  9
$MENU
  1
.
  9
$ELEVATION
 40
0
  9
$PELEVATION
 40
0
  9
$THICKNESS
 40
0
  9
$LIMCHECK
 70
    0
  9
$CHAMFERA
 40
0
  9
$CHAMFERB
 40
0
  9
$CHAMFERC
 40
0
  9
$CHAMFERD
 40
0
  9
$SKPOLY
 70
    0
  9
$USRTIMER
 70
    1
  9
$ANGBASE
 50
0
  9
$ANGDIR
 70
    0
  9
$PDMODE
 70
    0
  9
$PDSIZE
 40
0
  9
$PLINEWID
 40
0
  9
$SPLFRAME
 70
    0
  9
$SPLINETYPE
 70
    6
  9
$SPLINESEGS
 70
    8
  9
$HANDSEED
  5
20000
  9
$SURFTAB1
 70
    6
  9
$SURFTAB2
 70
    6
  9
$SURFTYPE
 70
    6
  9
$SURFU
 70
    6
  9
$SURFV
 70
    6
  9
$UCSBASE
  2

  9
$UCSNAME
  2

  9
$UCSORG
 10
0
 20
0
 30
0
  9
$UCSXDIR
 10
1
 20
0
 30
0
  9
$UCSYDIR
 10
0
 20
1
 30
0
  9
$UCSORTHOREF
  2

  9
$UCSORTHOVIEW
 70
    0
  9
$UCSORGTOP
 10
0
 20
0
 30
0
  9
$UCSORGBOTTOM
 10
0
 20
0
 30
0
  9
$UCSORGLEFT
 10
0
 20
0
 30
0
  9
$UCSORGRIGHT
 10
0
 20
0
 30
0
  9
$UCSORGFRONT
 10
0
 20
0
 30
0
  9
$UCSORGBACK
 10
0
 20
0
 30
0
  9
$PUCSBASE
  2

  9
$PUCSNAME
  2

  9
$PUCSORG
 10
0
 20
0
 30
0
  9
$PUCSXDIR
 10
1
 20
0
 30
0
  9
$PUCSYDIR
 10
0
 20
1
 30
0
  9
$PUCSORTHOREF
  2

  9
$PUCSORTHOVIEW
 70
    0
  9
$PUCSORGTOP
 10
0
 20
0
 30
0
  9
$PUCSORGBOTTOM
 10
0
 20
0
 30
0
  9
$PUCSORGLEFT
 10
0
 20
0
 30
0
  9
$PUCSORGRIGHT
 10
0
 20
0
 30
0
  9
$PUCSORGFRONT
 10
0
 20
0
 30
0
  9
$PUCSORGBACK
 10
0
 20
0
 30
0
  9
$USERI1
 70
    0
  9
$USERI2
 70
    0
  9
$USERI3
 70
    0
  9
$USERI4
 70
    0
  9
$USERI5
 70
    0
  9
$USERR1
 40
0
  9
$USERR2
 40
0
  9
$USERR3
 40
0
  9
$USERR4
 40
0
  9
$USERR5
 40
0
  9
$WORLDVIEW
 70
    1
  9
$SHADEDGE
 70
    3
  9
$SHADEDIF
 70
   70
  9
$TILEMODE
 70
    1
  9
$MAXACTVP
 70
   64
  9
$PINSBASE
 10
0
 20
0
 30
0
  9
$PLIMCHECK
 70
    0
  9
$PEXTMIN
 10
1e+20
 20
1e+20
 30
1e+20
  9
$PEXTMAX
 10
-1e+20
 20
-1e+20
 30
-1e+20
  9
$GRIDMODE
 70
    0
  9
$SNAPSTYLE
 70
    0
  9
$PLIMMIN
 10
0
 20
0
  9
$PLIMMAX
 10
420
 20
297
  9
$UNITMODE
 70
    0
  9
$VISRETAIN
 70
    1
  9
$PLINEGEN
 70
    0
  9
$PSLTSCALE
 70
    1
  9
$TREEDEPTH
 70
 3020
  9
$CMLSTYLE
  2
Standard
  9
$CMLJUST
 70
    0
  9
$CMLSCALE
 40
20
  9
$PROXYGRAPHICS
 70
    1
  9
$MEASUREMENT
 70
    1
  9
$CELWEIGHT
370
   -1
  9
$ENDCAPS
280
    0
  9
$JOINSTYLE
280
    0
  9
$LWDISPLAY
290
    0
  9
$INSUNITS
 70
    6
  9
$HYPERLINKBASE
  1

  9
$STYLESHEET
  1

  9
$XEDIT
290
    1
  9
$CEPSNTYPE
380
    0
  9
$PSTYLEMODE
290
    1
  9
$EXTNAMES
290
    1
  9
$PSVPSCALE
 40
0
  9
$OLESTARTUP
290
    0
  9
$SORTENTS
280
  127
  9
$INDEXCTL
280
    0
  9
$HIDETEXT
280
    1
  9
$XCLIPFRAME
290
    1
  9
$HALOGAP
280
    0
  9
$OBSCOLOR
 70
  257
  9
$OBSLTYPE
280
    0
  9
$INTERSECTIONDISPLAY
280
    0
  9
$INTERSECTIONCOLOR
 70
  257
  9
$DIMASSOC
280
    2
  9
$PROJECTNAME
  1

  9
$CAMERADISPLAY
290
    0
  9
$LENSLENGTH
 40
50
  9
$CAMERAHEIGHT
 40
0
  9
$STEPSPERSEC
 40
24
  9
$STEPSIZE
 40
100
  9
$3DDWFPREC
 40
2
  9
$PSOLWIDTH
 40
0.005
  9
$PSOLHEIGHT
 40
0.08
  9
$LOFTANG1
 40
1.570796326795
  9
$LOFTANG2
 40
1.570796326795
  9
$LOFTMAG1
 40
0
  9
$LOFTMAG2
 40
0
  9
$LOFTPARAM
 70
    7
  9
$LOFTNORMALS
280
    1
  9
$LATITUDE
 40
37.795
  9
$LONGITUDE
 40
-122.394
  9
$NORTHDIRECTION
 40
0
  9
$TIMEZONE
 70
-8000
  9
$LIGHTGLYPHDISPLAY
280
    1
  9
$TILEMODELIGHTSYNCH
280
    1
  9
$SOLIDHIST
280
    0
  9
$SHOWHIST
280
    1
  9
$DWFFRAME
280
    2
  9
$DGNFRAME
280
    2
  9
$REALWORLDSCALE
290
    1
  9
$INTERFERECOLOR
 62
  256
  9
$CSHADOW
280
    0
  9
$SHADOWPLANELOCATION
 40
0
  0
ENDSEC
  0
SECTION
  2
CLASSES
  0
ENDSEC
  0
SECTION
  2
TABLES
  0
TABLE
  2
VPORT
  5
8
330
0
100
AcDbSymbolTable
 70
    1
  0
VPORT
  5
31
330
2
100
AcDbSymbolTableRecord
100
AcDbViewportTableRecord
  2
*ACTIVE
 70
    0
 10
0
 20
0
 11
1
 21
1
 12
4571.214463649018
 22
788.5917578664377
 13
0
 23
0
 14
10
 24
10
 15
10
 25
10
 16
0
 26
0
 36
1
 17
0
 27
0
 37
0
 40
5307.451581989054
 41
1.932182490752158
 42
50
 43
0
 44
0
 50
0
 51
0
 71
    0
 72
  100
 73
    1
 74
    3
 75
    0
 76
    0
 77
    0
 78
    0
281
    0
 65
    1
110
0
120
0
130
0
111
1
121
0
131
0
112
0
122
1
132
0
 79
    0
146
0
348
10020
 60
    7
 61
    5
292
1
282
    1
141
0
142
0
 63
  250
421
3358443
  0
ENDTAB
  0
TABLE
  2
LTYPE
  5
5
330
0
100
AcDbSymbolTable
 70
    4
  0
LTYPE
  5
14
330
5
100
AcDbSymbolTableRecord
100
AcDbLinetypeTableRecord
  2
ByBlock
 70
    0
  3

 72
   65
 73
    0
 40
0
  0
LTYPE
  5
15
330
5
100
AcDbSymbolTableRecord
100
AcDbLinetypeTableRecord
  2
ByLayer
 70
    0
  3

 72
   65
 73
    0
 40
0
  0
LTYPE
  5
16
330
5
100
AcDbSymbolTableRecord
100
AcDbLinetypeTableRecord
  2
Continuous
 70
    0
  3
Solid line
 72
   65
 73
    0
 40
0
  0
LTYPE
  5
32
330
5
100
AcDbSymbolTableRecord
100
AcDbLinetypeTableRecord
  2
DOT
 70
    0
  3
Dot . . . . . . . . . . . . . . . . . . . . . .
 72
   65
 73
    2
 40
6.35
 49
0
 74
    0
 49
-6.35
 74
    0
  0
LTYPE
  5
33
330
5
100
AcDbSymbolTableRecord
100
AcDbLinetypeTableRecord
  2
DOTTINY
 70
    0
  3
Dot (.15x) .....................................
 72
   65
 73
    2
 40
0.9525
 49
0
 74
    0
 49
-0.9525
 74
    0
  0
LTYPE
  5
34
330
5
100
AcDbSymbolTableRecord
100
AcDbLinetypeTableRecord
  2
DOT2
 70
    0
  3
Dot (.5x) .....................................
 72
   65
 73
    2
 40
3.175
 49
0
 74
    0
 49
-3.175
 74
    0
  0
LTYPE
  5
35
330
5
100
AcDbSymbolTableRecord
100
AcDbLinetypeTableRecord
  2
DOTX2
 70
    0
  3
Dot (2x) .  .  .  .  .  .  .  .  .  .  .  .  .
 72
   65
 73
    2
 40
12.7
 49
0
 74
    0
 49
-12.7
 74
    0
  0
LTYPE
  5
36
330
5
100
AcDbSymbolTableRecord
100
AcDbLinetypeTableRecord
  2
DASHED
 70
    0
  3
Dashed _ _ _ _ _ _ _ _ _ _ _ _ _ _ _ _ _
 72
   65
 73
    2
 40
19.05
 49
12.7
 74
    0
 49
-6.35
 74
    0
  0
LTYPE
  5
37
330
5
100
AcDbSymbolTableRecord
100
AcDbLinetypeTableRecord
  2
DASHEDTINY
 70
    0
  3
Dashed (.15x) _ _ _ _ _ _ _ _ _ _ _ _ _ _ _ _ _
 72
   65
 73
    2
 40
2.8575
 49
1.905
 74
    0
 49
-0.9525
 74
    0
  0
LTYPE
  5
38
330
5
100
AcDbSymbolTableRecord
100
AcDbLinetypeTableRecord
  2
DASHED2
 70
    0
  3
Dashed (.5x) _ _ _ _ _ _ _ _ _ _ _ _ _ _ _ _ _
 72
   65
 73
    2
 40
9.524999999999999
 49
6.35
 74
    0
 49
-3.175
 74
    0
  0
LTYPE
  5
39
330
5
100
AcDbSymbolTableRecord
100
AcDbLinetypeTableRecord
  2
DASHEDX2
 70
    0
  3
Dashed (2x) ____  ____  ____  ____  ____  ___
 72
   65
 73
    2
 40
38.09999999999999
 49
25.4
 74
    0
 49
-12.7
 74
    0
  0
LTYPE
  5
3A
330
5
100
AcDbSymbolTableRecord
100
AcDbLinetypeTableRecord
  2
DASHDOT
 70
    0
  3
Dash dot __ . __ . __ . __ . __ . __ . __ . __
 72
   65
 73
    4
 40
25.4
 49
12.7
 74
    0
 49
-6.35
 74
    0
 49
0
 74
    0
 49
-6.35
 74
    0
  0
LTYPE
  5
3B
330
5
100
AcDbSymbolTableRecord
100
AcDbLinetypeTableRecord
  2
DASHDOTTINY
 70
    0
  3
Dash dot (.15x) _._._._._._._._._._._._._._._.
 72
   65
 73
    4
 40
3.81
 49
1.905
 74
    0
 49
-0.9525
 74
    0
 49
0
 74
    0
 49
-0.9525
 74
    0
  0
LTYPE
  5
3C
330
5
100
AcDbSymbolTableRecord
100
AcDbLinetypeTableRecord
  2
DASHDOT2
 70
    0
  3
Dash dot (.5x) _._._._._._._._._._._._._._._.
 72
   65
 73
    4
 40
12.7
 49
6.35
 74
    0
 49
-3.175
 74
    0
 49
0
 74
    0
 49
-3.175
 74
    0
  0
LTYPE
  5
3D
330
5
100
AcDbSymbolTableRecord
100
AcDbLinetypeTableRecord
  2
DASHDOTX2
 70
    0
  3
Dash dot (2x) ____  .  ____  .  ____  .  ___
 72
   65
 73
    4
 40
50.8
 49
25.4
 74
    0
 49
-12.7
 74
    0
 49
0
 74
    0
 49
-12.7
 74
    0
  0
LTYPE
  5
3E
330
5
100
AcDbSymbolTableRecord
100
AcDbLinetypeTableRecord
  2
DIVIDE
 70
    0
  3
Divide ____ . . ____ . . ____ . . ____ . . ____
 72
   65
 73
    6
 40
31.75
 49
12.7
 74
    0
 49
-6.35
 74
    0
 49
0
 74
    0
 49
-6.35
 74
    0
 49
0
 74
    0
 49
-6.35
 74
    0
  0
LTYPE
  5
3F
330
5
100
AcDbSymbolTableRecord
100
AcDbLinetypeTableRecord
  2
DIVIDETINY
 70
    0
  3
Divide (.15x) __..__..__..__..__..__..__..__.._
 72
   65
 73
    6
 40
4.7625
 49
1.905
 74
    0
 49
-0.9525
 74
    0
 49
0
 74
    0
 49
-0.9525
 74
    0
 49
0
 74
    0
 49
-0.9525
 74
    0
  0
LTYPE
  5
40
330
5
100
AcDbSymbolTableRecord
100
AcDbLinetypeTableRecord
  2
DIVIDE2
 70
    0
  3
Divide (.5x) __..__..__..__..__..__..__..__.._
 72
   65
 73
    6
 40
15.875
 49
6.35
 74
    0
 49
-3.175
 74
    0
 49
0
 74
    0
 49
-3.175
 74
    0
 49
0
 74
    0
 49
-3.175
 74
    0
  0
LTYPE
  5
41
330
5
100
AcDbSymbolTableRecord
100
AcDbLinetypeTableRecord
  2
DIVIDEX2
 70
    0
  3
Divide (2x) ________  .  .  ________  .  .  _
 72
   65
 73
    6
 40
63.5
 49
25.4
 74
    0
 49
-12.7
 74
    0
 49
0
 74
    0
 49
-12.7
 74
    0
 49
0
 74
    0
 49
-12.7
 74
    0
  0
LTYPE
  5
42
330
5
100
AcDbSymbolTableRecord
100
AcDbLinetypeTableRecord
  2
BORDER
 70
    0
  3
Border __ __ . __ __ . __ __ . __ __ . __ __ .
 72
   65
 73
    6
 40
44.45
 49
12.7
 74
    0
 49
-6.35
 74
    0
 49
12.7
 74
    0
 49
-6.35
 74
    0
 49
0
 74
    0
 49
-6.35
 74
    0
  0
LTYPE
  5
43
330
5
100
AcDbSymbolTableRecord
100
AcDbLinetypeTableRecord
  2
BORDERTINY
 70
    0
  3
Border (.15x) __.__.__.__.__.__.__.__.__.__.__.
 72
   65
 73
    6
 40
6.6675
 49
1.905
 74
    0
 49
-0.9525
 74
    0
 49
1.905
 74
    0
 49
-0.9525
 74
    0
 49
0
 74
    0
 49
-0.9525
 74
    0
  0
LTYPE
  5
44
330
5
100
AcDbSymbolTableRecord
100
AcDbLinetypeTableRecord
  2
BORDER2
 70
    0
  3
Border (.5x) __.__.__.__.__.__.__.__.__.__.__.
 72
   65
 73
    6
 40
22.225
 49
6.35
 74
    0
 49
-3.175
 74
    0
 49
6.35
 74
    0
 49
-3.175
 74
    0
 49
0
 74
    0
 49
-3.175
 74
    0
  0
LTYPE
  5
45
330
5
100
AcDbSymbolTableRecord
100
AcDbLinetypeTableRecord
  2
BORDERX2
 70
    0
  3
Border (2x) ____  ____  .  ____  ____  .  ___
 72
   65
 73
    6
 40
88.89999999999999
 49
25.4
 74
    0
 49
-12.7
 74
    0
 49
25.4
 74
    0
 49
-12.7
 74
    0
 49
0
 74
    0
 49
-12.7
 74
    0
  0
LTYPE
  5
46
330
5
100
AcDbSymbolTableRecord
100
AcDbLinetypeTableRecord
  2
CENTER
 70
    0
  3
Center ____ _ ____ _ ____ _ ____ _ ____ _ ____
 72
   65
 73
    4
 40
50.8
 49
31.75
 74
    0
 49
-6.35
 74
    0
 49
6.35
 74
    0
 49
-6.35
 74
    0
  0
LTYPE
  5
47
330
5
100
AcDbSymbolTableRecord
100
AcDbLinetypeTableRecord
  2
CENTERTINY
 70
    0
  3
Center (.15x) ___ _ ___ _ ___ _ ___ _ ___ _ ___
 72
   65
 73
    4
 40
7.62
 49
4.7625
 74
    0
 49
-0.9525
 74
    0
 49
0.9525
 74
    0
 49
-0.9525
 74
    0
  0
LTYPE
  5
48
330
5
100
AcDbSymbolTableRecord
100
AcDbLinetypeTableRecord
  2
CENTER2
 70
    0
  3
Center (.5x) ___ _ ___ _ ___ _ ___ _ ___ _ ___
 72
   65
 73
    4
 40
28.575
 49
19.05
 74
    0
 49
-3.175
 74
    0
 49
3.175
 74
    0
 49
-3.175
 74
    0
  0
LTYPE
  5
49
330
5
100
AcDbSymbolTableRecord
100
AcDbLinetypeTableRecord
  2
CENTERX2
 70
    0
  3
Center (2x) ________  __  ________  __  _____
 72
   65
 73
    4
 40
101.6
 49
63.5
 74
    0
 49
-12.7
 74
    0
 49
12.7
 74
    0
 49
-12.7
 74
    0
  0
ENDTAB
  0
TABLE
  2
LAYER
  5
2
330
0
100
AcDbSymbolTable
 70
    1
  0
LAYER
  5
10
330
2
100
AcDbSymbolTableRecord
100
AcDbLayerTableRecord
  2
0
 70
    0
 62
    7
  6
CONTINUOUS
370
   -3
390
F
  0
LAYER
  5
4A
330
2
100
AcDbSymbolTableRecord
100
AcDbLayerTableRecord
  2
BOUNDARY
 70
    0
 62
    7
  6
CONTINUOUS
370
   -3
390
F
  0
LAYER
  5
4B
330
2
100
AcDbSymbolTableRecord
100
AcDbLayerTableRecord
  2
CABIN_DARK
 70
    0
 62
   94
  6
CONTINUOUS
370
   -3
390
F
  0
LAYER
  5
4C
330
2
100
AcDbSymbolTableRecord
100
AcDbLayerTableRecord
  2
CABIN_LIGHT
 70
    0
 62
    3
  6
CONTINUOUS
370
   -3
390
F
  0
LAYER
  5
4D
330
2
100
AcDbSymbolTableRecord
100
AcDbLayerTableRecord
  2
CABIN_OUTLINE
 70
    0
 62
    7
  6
CONTINUOUS
370
   -3
390
F
  0
LAYER
  5
4E
330
2
100
AcDbSymbolTableRecord
100
AcDbLayerTableRecord
  2
Defpoints
 70
    0
 62
    7
  6
CONTINUOUS
290
0
370
   -3
390
F
  0
LAYER
  5
4F
330
2
100
AcDbSymbolTableRecord
100
AcDbLayerTableRecord
  2
LABELS
 70
    0
 62
    7
  6
CONTINUOUS
370
   -3
390
F
  0
LAYER
  5
50
330
2
100
AcDbSymbolTableRecord
100
AcDbLayerTableRecord
  2
PARKING
 70
    0
 62
    9
  6
CONTINUOUS
370
   -3
390
F
  0
LAYER
  5
51
330
2
100
AcDbSymbolTableRecord
100
AcDbLayerTableRecord
  2
POARTA
 70
    0
 62
    1
  6
CONTINUOUS
370
   -3
390
F
  0
LAYER
  5
52
330
2
100
AcDbSymbolTableRecord
100
AcDbLayerTableRecord
  2
ROAD
 70
    0
 62
    8
  6
CONTINUOUS
370
   -3
390
F
  0
LAYER
  5
53
330
2
100
AcDbSymbolTableRecord
100
AcDbLayerTableRecord
  2
STALP
 70
    0
 62
    5
  6
CONTINUOUS
370
   -3
390
F
  0
LAYER
  5
54
330
2
100
AcDbSymbolTableRecord
100
AcDbLayerTableRecord
  2
TREES
 70
    0
 62
    3
  6
CONTINUOUS
370
   -3
390
F
  0
ENDTAB
  0
TABLE
  2
STYLE
  5
3
330
0
100
AcDbSymbolTable
 70
    3
  0
STYLE
  5
55
330
2
100
AcDbSymbolTableRecord
100
AcDbTextStyleTableRecord
  2
STANDARD
 70
    0
 40
0
 41
1
 50
0
 71
    0
 42
1
  3
STANDARD
  4

  0
ENDTAB
  0
TABLE
  2
VIEW
  5
6
330
0
100
AcDbSymbolTable
 70
    0
  0
ENDTAB
  0
TABLE
  2
UCS
  5
7
330
0
100
AcDbSymbolTable
 70
    0
  0
ENDTAB
  0
TABLE
  2
APPID
  5
9
330
0
100
AcDbSymbolTable
 70
    1
  0
APPID
  5
12
330
9
100
AcDbSymbolTableRecord
100
AcDbRegAppTableRecord
  2
ACAD
 70
    0
  0
APPID
  5
56
330
9
100
AcDbSymbolTableRecord
100
AcDbRegAppTableRecord
  2
LibreCad
 70
    0
  0
ENDTAB
  0
TABLE
  2
DIMSTYLE
  5
A
330
0
100
AcDbSymbolTable
 70
    1
100
AcDbDimStyleTable
 71
    1
  0
DIMSTYLE
105
57
330
A
100
AcDbSymbolTableRecord
100
AcDbDimStyleTableRecord
  2
Standard
 70
    0
 40
1
 41
2.5
 42
0.625
 43
0.38
 44
1.25
 45
0
 46
0
 47
0
 48
0
 49
1
140
2.5
141
0.09
142
0
143
25.4
144
1
145
0
146
1
147
0.625
148
0
 71
    0
 72
    0
 73
    0
 74
    1
 75
    0
 76
    0
 77
    0
 78
    8
 79
    0
170
    0
171
    2
172
    0
173
    0
174
    0
175
    0
176
    0
177
    0
178
    0
179
    0
271
    2
272
    4
273
    2
274
    2
275
    0
276
    0
277
    2
278
   44
279
    0
280
    0
281
    0
282
    0
283
    1
284
    0
285
    0
286
    0
288
    0
289
    3
340
Standard
341

371
   -2
372
   -2
  0
ENDTAB
  0
TABLE
  2
BLOCK_RECORD
  5
1
330
0
100
AcDbSymbolTable
 70
    2
  0
BLOCK_RECORD
  5
1F
330
1
100
AcDbSymbolTableRecord
100
AcDbBlockTableRecord
  2
*Model_Space
 70
    0
280
    1
281
    0
  0
BLOCK_RECORD
  5
1E
330
1
100
AcDbSymbolTableRecord
100
AcDbBlockTableRecord
  2
*Paper_Space
 70
    0
280
    1
281
    0
  0
ENDTAB
  0
ENDSEC
  0
SECTION
  2
BLOCKS
  0
BLOCK
  5
20
330
1F
100
AcDbEntity
  8
0
100
AcDbBlockBegin
  2
*Model_Space
 70
    0
 10
0
 20
0
 30
0
  3
*Model_Space
  1

  0
ENDBLK
  5
21
330
1F
100
AcDbEntity
  8
0
100
AcDbBlockEnd
  0
BLOCK
  5
1C
330
1B
100
AcDbEntity
  8
0
100
AcDbBlockBegin
  2
*Paper_Space
 70
    0
 10
0
 20
0
 30
0
  3
*Paper_Space
  1

  0
ENDBLK
  5
1D
330
1F
100
AcDbEntity
  8
0
100
AcDbBlockEnd
  0
ENDSEC
  0
SECTION
  2
ENTITIES
  0
HATCH
  5
58
100
AcDbEntity
  8
CABIN_LIGHT
  6
ByLayer
 62
    3
370
   -1
100
AcDbHatch
 10
0
 20
0
 30
0
210
0
220
0
230
1
  2
SOLID
 70
    1
 71
    0
 91
    1
 92
    0
 93
    4
 72
    1
 10
2314.953783106602
 20
-1651.566223198681
 11
2193.400058739751
 21
-962.2007960901349
 72
    1
 10
2193.400058739751
 20
-962.2007960901349
 11
2439.601996992803
 21
-918.7887516734024
 72
    1
 10
2439.601996992803
 20
-918.7887516734024
 11
2561.155721359654
 21
-1608.154178781948
 72
    1
 10
2561.155721359654
 20
-1608.154178781948
 11
2314.953783106602
 21
-1651.566223198681
 97
    0
 75
    0
 76
    1
 98
    0
  0
HATCH
  5
59
100
AcDbEntity
  8
CABIN_DARK
  6
ByLayer
 62
   94
370
   -1
100
AcDbHatch
 10
0
 20
0
 30
0
210
0
220
0
230
1
  2
SOLID
 70
    1
 71
    0
 91
    1
 92
    0
 93
    4
 72
    1
 10
2561.155721359654
 20
-1608.154178781948
 11
2439.601996992803
 21
-918.7887516734024
 72
    1
 10
2439.601996992803
 20
-918.7887516734024
 11
2685.803935245855
 21
-875.37670725667
 72
    1
 10
2685.803935245855
 20
-875.37670725667
 11
2807.357659612706
 21
-1564.742134365215
 72
    1
 10
2807.357659612706
 20
-1564.742134365215
 11
2561.155721359654
 21
-1608.154178781948
 97
    0
 75
    0
 76
    1
 98
    0
  0
HATCH
  5
5A
100
AcDbEntity
  8
CABIN_DARK
  6
ByLayer
 62
   94
370
   -1
100
AcDbHatch
 10
0
 20
0
 30
0
210
0
220
0
230
1
  2
SOLID
 70
    1
 71
    0
 91
    1
 92
    0
 93
    4
 72
    1
 10
3718.792177732803
 20
-779.034822352359
 11
3268.840850952225
 21
-242.8037121690743
 72
    1
 10
3268.840850952225
 20
-242.8037121690743
 11
3460.35196173197
 21
-82.10680974743946
 72
    1
 10
3460.35196173197
 20
-82.10680974743946
 11
3910.303288512548
 21
-618.3379199307242
 72
    1
 10
3910.303288512548
 20
-618.3379199307242
 11
3718.792177732803
 21
-779.034822352359
 97
    0
 75
    0
 76
    1
 98
    0
  0
HATCH
  5
5B
100
AcDbEntity
  8
CABIN_LIGHT
  6
ByLayer
 62
    3
370
   -1
100
AcDbHatch
 10
0
 20
0
 30
0
210
0
220
0
230
1
  2
SOLID
 70
    1
 71
    0
 91
    1
 92
    0
 93
    4
 72
    1
 10
3527.281066953058
 20
-939.7317247739938
 11
3077.329740172481
 21
-403.5006145907091
 72
    1
 10
3077.329740172481
 20
-403.5006145907091
 11
3268.840850952225
 21
-242.8037121690743
 72
    1
 10
3268.840850952225
 20
-242.8037121690743
 11
3718.792177732803
 21
-779.034822352359
 72
    1
 10
3718.792177732803
 20
-779.034822352359
 11
3527.281066953058
 21
-939.7317247739938
 97
    0
 75
    0
 76
    1
 98
    0
  0
LWPOLYLINE
  5
5C
100
AcDbEntity
  8
BOUNDARY
  6
ByLayer
 62
  256
370
   -1
100
AcDbPolyline
 90
    4
 70
    1
 43
0
 10
0
 20
0
 10
10000
 20
0
 10
10000
 20
-2500
 10
0
 20
-2500
  0
CIRCLE
  5
5D
100
AcDbEntity
  8
TREES
  6
ByLayer
 62
  256
370
   -1
100
AcDbCircle
 10
50
 20
-880
 40
150
  0
TEXT
  5
5E
100
AcDbEntity
  8
LABELS
  6
ByLayer
 62
  256
370
   -1
100
AcDbText
 10
50
 20
-880
 30
0
 40
120
  1
P
 50
0
 41
1
 51
0
  7
STANDARD
 71
    0
 72
    1
 11
50
 21
-880
 31
0
210
0
220
0
230
1
100
AcDbText
 73
    2
  0
CIRCLE
  5
5F
100
AcDbEntity
  8
TREES
  6
ByLayer
 62
  256
370
   -1
100
AcDbCircle
 10
300
 20
-100
 40
100
  0
TEXT
  5
60
100
AcDbEntity
  8
LABELS
  6
ByLayer
 62
  256
370
   -1
100
AcDbText
 10
300
 20
-100
 30
0
 40
80
  1
P
 50
0
 41
1
 51
0
  7
STANDARD
 71
    0
 72
    1
 11
300
 21
-100
 31
0
210
0
220
0
230
1
100
AcDbText
 73
    2
  0
CIRCLE
  5
61
100
AcDbEntity
  8
TREES
  6
ByLayer
 62
  256
370
   -1
100
AcDbCircle
 10
1320
 20
-1020
 40
150
  0
TEXT
  5
62
100
AcDbEntity
  8
LABELS
  6
ByLayer
 62
  256
370
   -1
100
AcDbText
 10
1320
 20
-1020
 30
0
 40
120
  1
M
 50
0
 41
1
 51
0
  7
STANDARD
 71
    0
 72
    1
 11
1320
 21
-1020
 31
0
210
0
220
0
230
1
100
AcDbText
 73
    2
  0
CIRCLE
  5
63
100
AcDbEntity
  8
TREES
  6
ByLayer
 62
  256
370
   -1
100
AcDbCircle
 10
1400
 20
-80
 40
60
  0
TEXT
  5
64
100
AcDbEntity
  8
LABELS
  6
ByLayer
 62
  256
370
   -1
100
AcDbText
 10
1400
 20
-80
 30
0
 40
48
  1
P
 50
0
 41
1
 51
0
  7
STANDARD
 71
    0
 72
    1
 11
1400
 21
-80
 31
0
210
0
220
0
230
1
100
AcDbText
 73
    2
  0
CIRCLE
  5
65
100
AcDbEntity
  8
TREES
  6
ByLayer
 62
  256
370
   -1
100
AcDbCircle
 10
1500
 20
-100
 40
60
  0
TEXT
  5
66
100
AcDbEntity
  8
LABELS
  6
ByLayer
 62
  256
370
   -1
100
AcDbText
 10
1500
 20
-100
 30
0
 40
48
  1
P
 50
0
 41
1
 51
0
  7
STANDARD
 71
    0
 72
    1
 11
1500
 21
-100
 31
0
210
0
220
0
230
1
100
AcDbText
 73
    2
  0
CIRCLE
  5
67
100
AcDbEntity
  8
TREES
  6
ByLayer
 62
  256
370
   -1
100
AcDbCircle
 10
210
 20
-1260
 40
150
  0
TEXT
  5
68
100
AcDbEntity
  8
LABELS
  6
ByLayer
 62
  256
370
   -1
100
AcDbText
 10
210
 20
-1260
 30
0
 40
120
  1
P
 50
0
 41
1
 51
0
  7
STANDARD
 71
    0
 72
    1
 11
210
 21
-1260
 31
0
210
0
220
0
230
1
100
AcDbText
 73
    2
  0
CIRCLE
  5
69
100
AcDbEntity
  8
TREES
  6
ByLayer
 62
  256
370
   -1
100
AcDbCircle
 10
90
 20
-1390
 40
60
  0
TEXT
  5
6A
100
AcDbEntity
  8
LABELS
  6
ByLayer
 62
  256
370
   -1
100
AcDbText
 10
90
 20
-1390
 30
0
 40
48
  1
P
 50
0
 41
1
 51
0
  7
STANDARD
 71
    0
 72
    1
 11
90
 21
-1390
 31
0
210
0
220
0
230
1
100
AcDbText
 73
    2
  0
CIRCLE
  5
6B
100
AcDbEntity
  8
TREES
  6
ByLayer
 62
  256
370
   -1
100
AcDbCircle
 10
50
 20
-1660
 40
100
  0
TEXT
  5
6C
100
AcDbEntity
  8
LABELS
  6
ByLayer
 62
  256
370
   -1
100
AcDbText
 10
50
 20
-1660
 30
0
 40
80
  1
P
 50
0
 41
1
 51
0
  7
STANDARD
 71
    0
 72
    1
 11
50
 21
-1660
 31
0
210
0
220
0
230
1
100
AcDbText
 73
    2
  0
CIRCLE
  5
6D
100
AcDbEntity
  8
TREES
  6
ByLayer
 62
  256
370
   -1
100
AcDbCircle
 10
50
 20
-2020
 40
100
  0
TEXT
  5
6E
100
AcDbEntity
  8
LABELS
  6
ByLayer
 62
  256
370
   -1
100
AcDbText
 10
50
 20
-2020
 30
0
 40
80
  1
P
 50
0
 41
1
 51
0
  7
STANDARD
 71
    0
 72
    1
 11
50
 21
-2020
 31
0
210
0
220
0
230
1
100
AcDbText
 73
    2
  0
CIRCLE
  5
6F
100
AcDbEntity
  8
TREES
  6
ByLayer
 62
  256
370
   -1
100
AcDbCircle
 10
440
 20
-1420
 40
100
  0
TEXT
  5
70
100
AcDbEntity
  8
LABELS
  6
ByLayer
 62
  256
370
   -1
100
AcDbText
 10
440
 20
-1420
 30
0
 40
80
  1
G
 50
0
 41
1
 51
0
  7
STANDARD
 71
    0
 72
    1
 11
440
 21
-1420
 31
0
210
0
220
0
230
1
100
AcDbText
 73
    2
  0
CIRCLE
  5
71
100
AcDbEntity
  8
TREES
  6
ByLayer
 62
  256
370
   -1
100
AcDbCircle
 10
1120
 20
-1200
 40
100
  0
TEXT
  5
72
100
AcDbEntity
  8
LABELS
  6
ByLayer
 62
  256
370
   -1
100
AcDbText
 10
1120
 20
-1200
 30
0
 40
80
  1
G
 50
0
 41
1
 51
0
  7
STANDARD
 71
    0
 72
    1
 11
1120
 21
-1200
 31
0
210
0
220
0
230
1
100
AcDbText
 73
    2
  0
CIRCLE
  5
73
100
AcDbEntity
  8
TREES
  6
ByLayer
 62
  256
370
   -1
100
AcDbCircle
 10
700
 20
-1600
 40
100
  0
TEXT
  5
74
100
AcDbEntity
  8
LABELS
  6
ByLayer
 62
  256
370
   -1
100
AcDbText
 10
700
 20
-1600
 30
0
 40
80
  1
G
 50
0
 41
1
 51
0
  7
STANDARD
 71
    0
 72
    1
 11
700
 21
-1600
 31
0
210
0
220
0
230
1
100
AcDbText
 73
    2
  0
CIRCLE
  5
75
100
AcDbEntity
  8
TREES
  6
ByLayer
 62
  256
370
   -1
100
AcDbCircle
 10
2000
 20
-1460
 40
150
  0
TEXT
  5
76
100
AcDbEntity
  8
LABELS
  6
ByLayer
 62
  256
370
   -1
100
AcDbText
 10
2000
 20
-1460
 30
0
 40
120
  1
M
 50
0
 41
1
 51
0
  7
STANDARD
 71
    0
 72
    1
 11
2000
 21
-1460
 31
0
210
0
220
0
230
1
100
AcDbText
 73
    2
  0
CIRCLE
  5
77
100
AcDbEntity
  8
TREES
  6
ByLayer
 62
  256
370
   -1
100
AcDbCircle
 10
1190
 20
-1990
 40
100
  0
TEXT
  5
78
100
AcDbEntity
  8
LABELS
  6
ByLayer
 62
  256
370
   -1
100
AcDbText
 10
1190
 20
-1990
 30
0
 40
80
  1
P
 50
0
 41
1
 51
0
  7
STANDARD
 71
    0
 72
    1
 11
1190
 21
-1990
 31
0
210
0
220
0
230
1
100
AcDbText
 73
    2
  0
CIRCLE
  5
79
100
AcDbEntity
  8
TREES
  6
ByLayer
 62
  256
370
   -1
100
AcDbCircle
 10
1460
 20
-1970
 40
150
  0
TEXT
  5
7A
100
AcDbEntity
  8
LABELS
  6
ByLayer
 62
  256
370
   -1
100
AcDbText
 10
1460
 20
-1970
 30
0
 40
120
  1
P
 50
0
 41
1
 51
0
  7
STANDARD
 71
    0
 72
    1
 11
1460
 21
-1970
 31
0
210
0
220
0
230
1
100
AcDbText
 73
    2
  0
CIRCLE
  5
7B
100
AcDbEntity
  8
TREES
  6
ByLayer
 62
  256
370
   -1
100
AcDbCircle
 10
890
 20
-1930
 40
150
  0
TEXT
  5
7C
100
AcDbEntity
  8
LABELS
  6
ByLayer
 62
  256
370
   -1
100
AcDbText
 10
890
 20
-1930
 30
0
 40
120
  1
P
 50
0
 41
1
 51
0
  7
STANDARD
 71
    0
 72
    1
 11
890
 21
-1930
 31
0
210
0
220
0
230
1
100
AcDbText
 73
    2
  0
CIRCLE
  5
7D
100
AcDbEntity
  8
TREES
  6
ByLayer
 62
  256
370
   -1
100
AcDbCircle
 10
490
 20
-1900
 40
150
  0
TEXT
  5
7E
100
AcDbEntity
  8
LABELS
  6
ByLayer
 62
  256
370
   -1
100
AcDbText
 10
490
 20
-1900
 30
0
 40
120
  1
P
 50
0
 41
1
 51
0
  7
STANDARD
 71
    0
 72
    1
 11
490
 21
-1900
 31
0
210
0
220
0
230
1
100
AcDbText
 73
    2
  0
CIRCLE
  5
7F
100
AcDbEntity
  8
TREES
  6
ByLayer
 62
  256
370
   -1
100
AcDbCircle
 10
4000
 20
0
 40
150
  0
TEXT
  5
80
100
AcDbEntity
  8
LABELS
  6
ByLayer
 62
  256
370
   -1
100
AcDbText
 10
4000
 20
0
 30
0
 40
120
  1
V
 50
0
 41
1
 51
0
  7
STANDARD
 71
    0
 72
    1
 11
4000
 21
0
 31
0
210
0
220
0
230
1
100
AcDbText
 73
    2
  0
LWPOLYLINE
  5
81
100
AcDbEntity
  8
STALP
  6
ByLayer
 62
  256
370
   -1
100
AcDbPolyline
 90
    4
 70
    1
 43
0
 10
-15
 20
-275
 10
15
 20
-275
 10
15
 20
-245
 10
-15
 20
-245
  0
TEXT
  5
82
100
AcDbEntity
  8
LABELS
  6
ByLayer
 62
  256
370
   -1
100
AcDbText
 10
0
 20
-260
 30
0
 40
20
  1
S
 50
0
 41
1
 51
0
  7
STANDARD
 71
    0
 72
    1
 11
0
 21
-260
 31
0
210
0
220
0
230
1
100
AcDbText
 73
    2
  0
LINE
  5
83
100
AcDbEntity
  8
POARTA
  6
ByLayer
 62
  256
370
   -1
100
AcDbLine
 10
0
 20
-1280
 11
0
 21
-1420
  0
TEXT
  5
84
100
AcDbEntity
  8
POARTA
  6
ByLayer
 62
  256
370
   -1
100
AcDbText
 10
10
 20
-1350
 30
0
 40
30
  1
Poarta
 50
0
 41
1
 51
0
  7
STANDARD
 71
    0
210
0
220
0
230
1
100
AcDbText
  0
HATCH
  5
85
100
AcDbEntity
  8
ROAD
  6
ByLayer
 62
    8
370
   -1
100
AcDbHatch
 10
0
 20
0
 30
0
210
0
220
0
230
1
  2
SOLID
 70
    1
 71
    0
 91
    1
 92
    0
 93
    4
 72
    1
 10
0
 20
-2100
 11
5000
 21
-2100
 72
    1
 10
5000
 20
-2100
 11
5000
 21
-2500
 72
    1
 10
5000
 20
-2500
 11
0
 21
-2500
 72
    1
 10
0
 20
-2500
 11
0
 21
-2100
 97
    0
 75
    0
 76
    1
 98
    0
  0
LWPOLYLINE
  5
86
100
AcDbEntity
  8
ROAD
  6
ByLayer
 62
  256
370
   -1
100
AcDbPolyline
 90
    4
 70
    1
 43
0
 10
0
 20
-2100
 10
5000
 20
-2100
 10
5000
 20
-2500
 10
0
 20
-2500
  0
TEXT
  5
87
100
AcDbEntity
  8
ROAD
  6
ByLayer
 62
  256
370
   -1
100
AcDbText
 10
2500
 20
-2300
 30
0
 40
40
  1
Road
 50
0
 41
1
 51
0
  7
STANDARD
 71
    0
 72
    1
 11
2500
 21
-2300
 31
0
210
0
220
0
230
1
100
AcDbText
 73
    2
  0
HATCH
  5
88
100
AcDbEntity
  8
PARKING
  6
ByLayer
 62
    9
370
   -1
100
AcDbHatch
 10
0
 20
0
 30
0
210
0
220
0
230
1
  2
SOLID
 70
    1
 71
    0
 91
    1
 92
    0
 93
    4
 72
    1
 10
2000
 20
-1800
 11
3000
 21
-1800
 72
    1
 10
3000
 20
-1800
 11
3000
 21
-2100
 72
    1
 10
3000
 20
-2100
 11
2000
 21
-2100
 72
    1
 10
2000
 20
-2100
 11
2000
 21
-1800
 97
    0
 75
    0
 76
    1
 98
    0
  0
LWPOLYLINE
  5
89
100
AcDbEntity
  8
PARKING
  6
ByLayer
 62
  256
370
   -1
100
AcDbPolyline
 90
    4
 70
    1
 43
0
 10
2000
 20
-1800
 10
3000
 20
-1800
 10
3000
 20
-2100
 10
2000
 20
-2100
  0
TEXT
  5
8A
100
AcDbEntity
  8
PARKING
  6
ByLayer
 62
  256
370
   -1
100
AcDbText
 10
4500
 20
-1950
 30
0
 40
40
  1
Parking
 50
0
 41
1
 51
0
  7
STANDARD
 71
    0
 72
    1
 11
4500
 21
-1950
 31
0
210
0
220
0
230
1
100
AcDbText
 73
    2
  0
HATCH
  5
8B
100
AcDbEntity
  8
CABIN_LIGHT
  6
ByLayer
 62
    3
370
   -1
100
AcDbHatch
 10
0
 20
0
 30
0
210
0
220
0
230
1
  2
SOLID
 70
    1
 71
    0
 91
    1
 92
    0
 93
    4
 72
    1
 10
1461.905242028995
 20
-1064.574923930374
 11
2151.27066913754
 21
-943.0211995635224
 72
    1
 10
2151.27066913754
 20
-943.0211995635224
 11
2194.682713554273
 21
-1189.223137816574
 72
    1
 10
2194.682713554273
 20
-1189.223137816574
 11
1505.317286445727
 21
-1310.776862183426
 72
    1
 10
1505.317286445727
 20
-1310.776862183426
 11
1461.905242028995
 21
-1064.574923930374
 97
    0
 75
    0
 76
    1
 98
    0
  0
HATCH
  5
8C
100
AcDbEntity
  8
CABIN_DARK
  6
ByLayer
 62
   94
370
   -1
100
AcDbHatch
 10
0
 20
0
 30
0
210
0
220
0
230
1
  2
SOLID
 70
    1
 71
    0
 91
    1
 92
    0
 93
    4
 72
    1
 10
1505.317286445727
 20
-1310.776862183426
 11
2194.682713554273
 21
-1189.223137816574
 72
    1
 10
2194.682713554273
 20
-1189.223137816574
 11
2238.094757971005
 21
-1435.425076069626
 72
    1
 10
2238.094757971005
 20
-1435.425076069626
 11
1548.72933086246
 21
-1556.978800436478
 72
    1
 10
1548.72933086246
 20
-1556.978800436478
 11
1505.317286445727
 21
-1310.776862183426
 97
    0
 75
    0
 76
    1
 98
    0
  0
LWPOLYLINE
  5
8D
100
AcDbEntity
  8
CABIN_OUTLINE
  6
ByLayer
 62
  256
370
   -1
100
AcDbPolyline
 90
    4
 70
    1
 43
0
 10
1461.905242028995
 20
-1064.574923930374
 10
2151.27066913754
 20
-943.0211995635224
 10
2238.094757971005
 20
-1435.425076069626
 10
1548.72933086246
 20
-1556.978800436478
  0
LINE
  5
8E
100
AcDbEntity
  8
CABIN_OUTLINE
  6
ByLayer
 62
  256
370
   -1
100
AcDbLine
 10
1505.317286445727
 20
-1310.776862183426
 11
2194.682713554273
 21
-1189.223137816574
  0
TEXT
  5
8F
100
AcDbEntity
  8
LABELS
  6
ByLayer
 62
  256
370
   -1
100
AcDbText
 10
1850
 20
-1250
 30
0
 40
40
  1
Cabin 1
 50
0
 41
1
 51
0
  7
STANDARD
 71
    0
 72
    1
 11
1850
 21
-1250
 31
0
210
0
220
0
230
1
100
AcDbText
 73
    2
  0
LWPOLYLINE
  5
90
100
AcDbEntity
  8
CABIN_OUTLINE
  6
ByLayer
 62
  256
370
   -1
100
AcDbPolyline
 90
    4
 70
    1
 43
0
 10
3527.281066953058
 20
-939.7317247739938
 10
3077.329740172481
 20
-403.5006145907091
 10
3460.35196173197
 20
-82.10680974743946
 10
3910.303288512548
 20
-618.3379199307242
  0
LINE
  5
91
100
AcDbEntity
  8
CABIN_OUTLINE
  6
ByLayer
 62
  256
370
   -1
100
AcDbLine
 10
3718.792177732803
 20
-779.034822352359
 11
3268.840850952225
 21
-242.8037121690743
  0
TEXT
  5
92
100
AcDbEntity
  8
LABELS
  6
ByLayer
 62
  256
370
   -1
100
AcDbText
 10
3493.816514342514
 20
-510.9192672607167
 30
0
 40
40
  1
Cabin 3
 50
0
 41
1
 51
0
  7
STANDARD
 71
    0
 72
    1
 11
3493.816514342514
 21
-510.9192672607167
 31
0
210
0
220
0
230
1
100
AcDbText
 73
    2
  0
LWPOLYLINE
  5
93
100
AcDbEntity
  8
CABIN_OUTLINE
  6
ByLayer
 62
  256
370
   -1
100
AcDbPolyline
 90
    4
 70
    1
 43
0
 10
2314.953783106602
 20
-1651.566223198681
 10
2193.400058739751
 20
-962.2007960901349
 10
2685.803935245855
 20
-875.37670725667
 10
2807.357659612706
 20
-1564.742134365215
  0
LINE
  5
94
100
AcDbEntity
  8
CABIN_OUTLINE
  6
ByLayer
 62
  256
370
   -1
100
AcDbLine
 10
2561.155721359654
 20
-1608.154178781948
 11
2439.601996992803
 21
-918.7887516734024
  0
TEXT
  5
95
100
AcDbEntity
  8
LABELS
  6
ByLayer
 62
  256
370
   -1
100
AcDbText
 10
2500.378859176229
 20
-1263.471465227675
 30
0
 40
40
  1
Cabin 2
 50
30
 41
1
 51
0
  7
STANDARD
 71
    0
 72
    1
 11
2500.378859176229
 21
-1263.471465227675
 31
0
210
0
220
0
230
1
100
AcDbText
 73
    2
  0
LWPOLYLINE
  5
96
100
AcDbEntity
  8
0
  6
ByLayer
 62
  256
370
   -1
100
AcDbPolyline
 90
    4
 70
    1
 43
0
 10
445.2293570718575
 20
-293.8513756674259
 10
1242.189906230482
 20
-293.8513756674259
 10
1242.189906230482
 20
-899.363301285152
 10
445.2293570718575
 20
-899.363301285152
  0
ENDSEC
  0
SECTION
  2
OBJECTS
  0
DICTIONARY
  5
C
330
0
100
AcDbDictionary
281
    1
  3
ACAD_GROUP
350
D
  0
DICTIONARY
  5
D
330
C
100
AcDbDictionary
281
    1
  0
PLOTSETTINGS
  5
97
100
AcDbPlotSettings
  6
1x1
 40
0
 41
0
 42
0
 43
0
  0
ENDSEC
  0
EOF
